<?xml version="1.0" standalone="no"?>
<!DOCTYPE svg PUBLIC "-//W3C//DTD SVG 20010904//EN"
 "http://www.w3.org/TR/2001/REC-SVG-20010904/DTD/svg10.dtd">
<svg version="1.0" xmlns="http://www.w3.org/2000/svg"
 width="512.000000pt" height="512.000000pt" viewBox="0 0 512.000000 512.000000"
 preserveAspectRatio="xMidYMid meet">
<metadata>
Created by potrace 1.14, written by Peter Selinger 2001-2017
</metadata>
<g transform="translate(0.000000,512.000000) scale(0.100000,-0.100000)"
fill="#000000" stroke="none">
<path d="M1409 5062 c-169 -79 -341 -182 -507 -304 -46 -34 -51 -42 -40 -56 7
-9 8 -13 2 -9 -14 8 -47 -26 -37 -38 5 -4 2 -5 -5 -1 -11 6 -8 13 9 32 39 42
9 26 -65 -33 -110 -89 -309 -287 -402 -399 -97 -118 -225 -306 -307 -451 l-57
-101 0 -1274 0 -1273 59 -107 c224 -402 496 -695 890 -959 l133 -89 1472 0
1471 0 123 80 c390 253 675 567 916 1009 l56 102 0 1245 0 1245 -31 62 c-93
184 -286 459 -449 642 -248 277 -595 534 -920 681 l-120 54 -1033 0 -1033 -1
-125 -57z m151 45 c0 -2 -10 -12 -21 -23 -22 -19 -22 -19 -10 4 10 18 31 31
31 19z m1285 -16 c198 -27 442 -88 521 -129 11 -6 38 -18 62 -27 23 -10 42
-21 42 -24 0 -4 13 -15 30 -24 18 -11 27 -23 24 -32 -4 -10 1 -13 20 -9 14 2
26 0 26 -5 0 -6 -17 -13 -37 -17 -54 -9 -78 -26 -32 -22 24 3 36 -1 36 -9 0
-7 -10 -13 -21 -13 -21 -1 -21 -1 -2 -15 11 -8 17 -18 13 -21 -4 -4 -13 -1
-22 6 -9 7 -18 10 -22 7 -3 -4 2 -9 11 -13 9 -3 13 -11 9 -17 -3 -5 -2 -7 4
-4 13 8 83 -11 83 -23 0 -6 -6 -10 -12 -10 -7 0 14 -15 47 -33 39 -22 66 -31
76 -26 10 5 16 3 16 -6 0 -8 -5 -11 -11 -8 -6 3 -8 3 -4 -1 3 -4 9 -7 12 -6
11 2 66 -34 66 -43 0 -4 4 -6 9 -3 5 3 11 -1 15 -9 3 -8 10 -15 16 -15 6 0 8
6 4 13 -4 7 -3 9 2 4 5 -5 9 -14 9 -20 1 -7 6 -11 13 -10 7 2 12 -2 12 -7 0
-6 15 -19 33 -30 106 -64 362 -298 486 -445 164 -194 346 -506 420 -723 23
-68 28 -151 9 -170 -8 -8 -47 -12 -109 -12 -121 0 -134 9 -179 122 -42 108
-121 265 -168 336 -72 107 -79 117 -93 117 -8 0 -14 8 -14 17 0 25 -82 118
-99 112 -7 -3 -19 2 -26 11 -7 8 -9 15 -5 15 5 0 0 10 -11 23 l-19 22 22 -19
c12 -10 21 -23 20 -28 -1 -6 4 -13 11 -15 21 -8 13 12 -16 40 -25 24 -39 30
-89 41 -7 1 -15 5 -18 8 -4 3 -16 3 -28 0 l-22 -6 23 -5 c27 -7 30 -25 5 -27
-10 -1 -22 -3 -28 -4 -24 -6 -38 3 -15 10 22 6 23 8 6 15 -10 5 -21 4 -25 -3
-3 -5 -20 -12 -36 -15 l-30 -4 32 -2 c45 -2 53 -21 9 -21 -19 0 -38 -4 -41
-10 -3 -5 -15 -10 -26 -10 -10 0 -19 5 -19 10 0 6 12 10 27 10 20 0 24 3 16
11 -13 13 -68 -3 -88 -25 -29 -32 -98 -45 -80 -15 6 9 -41 -8 -62 -23 -6 -5
-13 -4 -16 4 -3 8 -6 6 -6 -6 -1 -12 -6 -16 -16 -12 -8 3 -15 0 -16 -7 0 -7
-5 -2 -11 11 -7 13 -20 22 -32 21 -12 0 -15 -3 -8 -6 6 -2 12 -8 12 -12 0 -32
-187 -46 -216 -16 -19 18 -48 19 -66 2 -25 -25 -73 -37 -152 -39 -44 -1 -71
-5 -60 -8 14 -5 10 -9 -20 -14 -24 -5 -41 -3 -45 3 -4 6 -12 7 -21 1 -8 -6
-31 -10 -51 -10 -20 0 -39 -3 -43 -7 -4 -4 -18 -9 -31 -10 -20 -3 -25 1 -25
17 0 21 16 28 22 9 2 -5 11 -7 21 -4 9 4 14 11 11 16 -3 5 -9 7 -14 4 -5 -3
-13 2 -19 12 -8 16 -11 15 -22 -10 -9 -20 -17 -26 -31 -21 -27 8 -22 -11 7
-26 14 -7 25 -17 25 -22 0 -12 -5 -10 -60 22 -27 16 -50 25 -50 20 0 -6 5 -10
10 -10 6 0 10 -7 10 -15 0 -8 7 -15 15 -15 8 0 15 -5 15 -11 0 -5 -3 -9 -7 -7
-5 2 -25 13 -45 23 -36 19 -37 19 -58 0 -14 -13 -24 -16 -28 -8 -7 11 -77 11
-88 0 -4 -3 5 -9 20 -13 39 -10 23 -20 -25 -16 -33 4 -38 7 -25 14 21 12 12
28 -16 28 -15 0 -19 -5 -15 -19 4 -16 -3 -20 -48 -26 -85 -10 -152 -4 -151 14
1 9 -10 18 -29 21 l-30 6 30 8 30 9 -25 7 c-31 8 -53 1 -46 -15 3 -8 -9 -15
-32 -19 -56 -9 -94 -7 -87 4 3 6 26 10 50 10 24 0 47 5 51 12 5 8 -2 9 -26 5
-25 -5 -31 -4 -27 7 4 10 0 12 -14 9 -10 -3 -19 -9 -19 -14 0 -5 -10 -9 -23
-9 -13 0 -27 -4 -33 -9 -5 -6 -16 -4 -28 5 -15 11 -16 14 -5 14 10 0 15 8 13
23 -1 12 -3 27 -3 33 -1 6 -24 11 -53 11 l-53 1 44 -9 c52 -10 53 -11 45 -33
-3 -9 -16 -16 -28 -15 -11 0 -15 3 -8 6 23 9 1 23 -36 22 -20 -1 -30 -3 -21
-6 16 -4 32 -37 23 -46 -7 -7 -129 15 -132 24 -2 5 -8 9 -13 9 -6 0 -7 -4 -4
-10 3 -6 -5 -10 -19 -10 -14 0 -28 5 -31 10 -3 6 -17 10 -31 10 -13 0 -24 -4
-24 -10 0 -5 6 -10 14 -10 8 0 18 -4 21 -10 11 -17 -24 -11 -43 8 -30 29 -56
48 -48 35 5 -9 0 -13 -16 -13 -22 -1 -22 -1 -4 -15 19 -15 19 -15 -2 -15 -14
0 -22 6 -22 17 0 13 -3 14 -12 5 -7 -7 -19 -12 -27 -12 -13 1 -12 4 3 15 19
14 19 15 -7 15 -15 0 -27 -5 -27 -11 0 -16 -102 -4 -115 14 -5 7 -18 11 -29 9
-10 -2 -16 0 -12 6 3 5 -3 12 -14 15 -11 3 -20 0 -20 -6 0 -8 -4 -7 -12 1 -7
7 -36 11 -72 10 l-61 -2 58 -3 c31 -2 57 -8 57 -13 0 -5 -35 -7 -80 -4 -119 7
-97 -11 28 -24 l107 -10 -100 5 c-55 2 -107 6 -116 9 -9 3 -24 -2 -32 -11 -9
-8 -20 -15 -26 -15 -6 0 -11 -4 -11 -10 0 -5 7 -10 15 -10 8 0 15 5 15 10 0 6
27 9 63 9 l62 -2 -60 -7 c-32 -4 -61 -13 -63 -19 -5 -14 -32 -15 -32 -1 0 6
-9 10 -21 10 -19 0 -18 3 11 30 18 17 36 30 41 30 4 0 12 6 16 14 4 8 22 16
38 18 l30 4 -29 9 c-21 5 -31 5 -34 -3 -2 -7 -12 -12 -22 -12 -10 0 -20 -6
-23 -12 -4 -10 -7 -10 -18 0 -11 10 -10 12 4 12 9 0 17 5 17 11 0 6 -7 8 -16
5 -12 -5 -15 -2 -10 11 5 15 4 15 -9 -1 -13 -17 -13 -22 0 -42 18 -27 19 -34
5 -34 -6 0 -9 5 -8 11 6 24 -20 18 -26 -6 -4 -15 -13 -25 -24 -25 -15 1 -15 2
2 15 11 8 17 18 13 21 -11 11 -99 -103 -177 -229 -37 -59 -41 -69 -29 -85 13
-15 12 -16 -3 -4 -14 12 -20 5 -51 -60 -53 -110 -73 -160 -92 -225 -9 -32 -23
-68 -31 -81 -8 -12 -13 -26 -10 -30 6 -10 -4 -11 -152 -18 -156 -8 -172 -4
-172 40 0 18 14 80 31 137 17 57 32 114 33 126 0 11 4 19 9 16 4 -2 7 0 7 6 0
5 3 17 7 27 4 12 3 15 -5 10 -8 -5 -10 -2 -6 8 3 9 10 13 15 10 5 -3 9 -3 9 0
0 3 9 28 20 56 11 28 15 48 9 44 -7 -4 -10 -1 -7 7 3 8 10 13 16 12 7 -2 9 4
5 14 -4 11 -3 14 5 9 8 -5 10 -1 5 10 -4 11 -3 15 4 11 7 -5 9 1 5 15 -5 18
-7 19 -10 6 -2 -9 -9 -18 -15 -21 -9 -3 -11 10 -8 47 4 44 5 47 11 21 l6 -30
7 25 c10 35 9 52 -3 45 -5 -3 -10 -1 -10 5 0 6 -4 9 -9 5 -5 -3 -12 -1 -16 5
-3 5 1 10 10 10 11 0 14 6 9 25 -4 15 -2 25 5 25 6 0 8 11 5 30 -4 18 -1 36 6
45 7 8 10 22 6 30 -3 10 5 20 24 30 32 16 41 29 14 18 -14 -5 -14 -3 -3 15 9
15 16 18 21 9 12 -19 21 0 21 43 0 33 5 46 32 68 36 31 77 87 69 95 -3 3 3 8
14 11 10 4 25 19 32 34 19 37 61 82 77 82 8 0 12 4 9 9 -6 9 18 34 25 26 3 -2
13 11 24 30 10 19 21 35 25 35 4 0 17 9 30 20 13 11 20 20 16 20 -13 0 30 36
65 54 19 10 41 31 48 47 7 16 17 29 23 29 6 0 30 16 54 35 23 19 47 35 53 35
6 0 11 5 11 10 0 6 5 10 10 10 6 0 23 11 38 25 15 14 32 25 39 25 7 0 16 6 20
13 9 14 68 49 133 79 25 11 47 24 50 28 6 9 282 147 310 155 3 1 17 7 31 13
15 6 44 14 65 17 22 4 48 10 59 15 55 23 205 57 370 83 130 21 134 21 310 25
110 2 190 -2 300 -17z m810 -399 c-6 -7 -55 11 -50 18 3 5 16 3 29 -3 14 -7
23 -13 21 -15z m5 -28 c0 -2 -7 -4 -15 -4 -8 0 -15 4 -15 10 0 5 7 7 15 4 8
-4 15 -8 15 -10z m139 -81 c2 -2 0 -3 -5 -3 -5 0 -22 12 -39 26 l-30 26 35
-23 c19 -12 37 -24 39 -26z m111 -47 c-7 -7 -13 -7 -20 0 -6 6 -3 10 10 10 13
0 16 -4 10 -10z m-15 -34 c-3 -3 -11 0 -18 7 -9 10 -8 11 6 5 10 -3 15 -9 12
-12z m-3342 -107 c-3 -9 -8 -14 -10 -11 -3 3 -2 9 2 15 9 16 15 13 8 -4z
m-162 -172 c13 -16 12 -17 -3 -4 -14 11 -18 11 -18 1 0 -8 -3 -11 -6 -7 -5 5
3 27 10 27 2 0 10 -8 17 -17z m-11 -37 c0 -2 -8 -10 -17 -17 -16 -13 -17 -12
-4 4 13 16 21 21 21 13z m3615 -306 c-3 -5 -16 -10 -28 -9 -20 1 -20 2 3 9 14
4 26 8 28 9 2 1 0 -3 -3 -9z m-67 -27 c-10 -2 -26 -2 -35 0 -10 3 -2 5 17 5
19 0 27 -2 18 -5z m-118 -13 c0 -5 -4 -10 -9 -10 -6 0 -13 5 -16 10 -3 6 1 10
9 10 9 0 16 -4 16 -10z m-130 -19 c0 -5 -9 -7 -20 -4 -11 3 -20 7 -20 9 0 2 9
4 20 4 11 0 20 -4 20 -9z m509 -25 c-3 -3 -11 5 -18 17 -13 21 -12 21 5 5 10
-10 16 -20 13 -22z m-634 -6 c-3 -5 -10 -10 -16 -10 -5 0 -9 5 -9 10 0 6 7 10
16 10 8 0 12 -4 9 -10z m-55 -20 c0 -5 -12 -10 -27 -10 -22 0 -25 2 -13 10 20
13 40 13 40 0z m-143 -6 c-3 -3 -12 -4 -19 -1 -8 3 -5 6 6 6 11 1 17 -2 13 -5z
m-167 -14 c0 -12 -54 -12 -90 0 -19 6 -11 8 33 9 32 1 57 -3 57 -9z m-52 -24
c3 -3 -46 -6 -109 -6 -76 0 -119 -4 -127 -12 -9 -9 -15 -9 -23 -1 -8 8 3 13
42 20 57 9 207 8 217 -1z m-1488 -15 c0 -17 -18 -21 -24 -6 -3 9 0 15 9 15 8
0 15 -4 15 -9z m327 3 c-3 -3 -12 -4 -19 -1 -8 3 -5 6 6 6 11 1 17 -2 13 -5z
m-1956 -27 c-10 -9 -11 -8 -5 6 3 10 9 15 12 12 3 -3 0 -11 -7 -18z m2659 15
c0 -12 -23 -32 -37 -32 -9 0 -8 6 4 20 18 21 33 26 33 12z m-2305 -11 c3 -5 1
-12 -4 -15 -5 -3 -11 1 -15 9 -6 16 9 21 19 6z m803 2 c-10 -2 -26 -2 -35 0
-10 3 -2 5 17 5 19 0 27 -2 18 -5z m832 -9 c0 -2 -7 -4 -15 -4 -8 0 -15 4 -15
10 0 5 7 7 15 4 8 -4 15 -8 15 -10z m1053 9 c-23 -2 -64 -2 -90 0 -26 2 -7 3
42 3 50 0 71 -1 48 -3z m-1606 -9 c-3 -3 -12 -4 -19 -1 -8 3 -5 6 6 6 11 1 17
-2 13 -5z m-514 -19 c-3 -9 -8 -14 -10 -11 -3 3 -2 9 2 15 9 16 15 13 8 -4z
m648 2 c-5 -5 -24 -4 -42 1 l-34 10 42 -1 c23 -1 38 -6 34 -10z m599 3 c0 -5
-4 -10 -9 -10 -6 0 -13 5 -16 10 -3 6 1 10 9 10 9 0 16 -4 16 -10z m60 6 c0
-11 -19 -15 -25 -6 -3 5 1 10 9 10 9 0 16 -2 16 -4z m450 -17 c0 -5 -7 -9 -15
-9 -9 0 -12 6 -9 15 6 15 24 11 24 -6z m-630 1 c0 -5 -2 -10 -4 -10 -3 0 -8 5
-11 10 -3 6 -1 10 4 10 6 0 11 -4 11 -10z m548 -1 c-2 -6 -8 -11 -13 -11 -6
-1 -16 -8 -23 -17 -10 -12 -12 -13 -6 -1 12 24 26 40 36 40 5 0 8 -5 6 -11z
m-168 -29 c0 -5 -4 -10 -10 -10 -5 0 -10 5 -10 10 0 6 5 10 10 10 6 0 10 -4
10 -10z m83 3 c-7 -2 -19 -2 -25 0 -7 3 -2 5 12 5 14 0 19 -2 13 -5z m127 -3
c0 -5 -2 -10 -4 -10 -3 0 -8 5 -11 10 -3 6 -1 10 4 10 6 0 11 -4 11 -10z
m-1758 -22 c-7 -7 -12 -8 -12 -2 0 14 12 26 19 19 2 -3 -1 -11 -7 -17z m1391
15 c-7 -2 -19 -2 -25 0 -7 3 -2 5 12 5 14 0 19 -2 13 -5z m74 1 c-3 -3 -12 -4
-19 -1 -8 3 -5 6 6 6 11 1 17 -2 13 -5z m256 -11 c-7 -3 -13 -11 -13 -19 0 -8
-4 -14 -10 -14 -5 0 -10 5 -10 11 0 14 33 40 40 32 3 -3 -1 -8 -7 -10z m-2233
-7 c0 -3 -4 -8 -10 -11 -5 -3 -10 -1 -10 4 0 6 5 11 10 11 6 0 10 -2 10 -4z
m574 -11 c-4 -8 -8 -15 -10 -15 -2 0 -4 7 -4 15 0 8 4 15 10 15 5 0 7 -7 4
-15z m1724 -5 c-7 -10 -14 -17 -17 -15 -4 4 18 35 25 35 2 0 -1 -9 -8 -20z
m-43 -19 c3 -5 1 -12 -5 -16 -5 -3 -10 1 -10 9 0 18 6 21 15 7z m75 -11 c0 -5
-4 -10 -10 -10 -5 0 -10 5 -10 10 0 6 5 10 10 10 6 0 10 -4 10 -10z m-2335
-10 c3 -5 1 -10 -4 -10 -6 0 -11 5 -11 10 0 6 2 10 4 10 3 0 8 -4 11 -10z
m2035 -18 c0 -10 -6 -26 -13 -37 -11 -14 -16 -15 -22 -5 -5 9 -4 11 4 6 7 -5
13 3 17 23 7 34 14 41 14 13z m221 -2 c10 0 19 -4 19 -8 0 -5 -23 -10 -51 -11
-37 -1 -50 2 -46 11 2 7 14 12 26 11 11 -2 21 3 22 10 0 9 2 9 6 0 2 -7 13
-13 24 -13z m59 0 c0 -5 -4 -10 -10 -10 -5 0 -10 5 -10 10 0 6 5 10 10 10 6 0
10 -4 10 -10z m-1460 -4 c0 -11 -19 -15 -25 -6 -3 5 1 10 9 10 9 0 16 -2 16
-4z m-856 -21 c8 -22 -4 -45 -23 -45 -14 1 -13 3 3 15 16 12 17 17 6 30 -7 8
-8 15 -2 15 5 0 12 -7 16 -15z m693 -11 c206 -8 506 -4 519 7 8 6 17 9 20 7 3
-3 -6 -14 -19 -25 l-25 -19 55 -62 c48 -54 58 -61 72 -50 14 11 14 11 4 -2 -9
-12 -6 -21 12 -44 14 -18 27 -26 35 -21 8 5 11 4 6 -3 -9 -15 141 -185 156
-176 5 3 7 2 6 -3 -3 -8 72 -103 82 -103 3 0 33 31 68 69 41 46 58 72 51 77
-7 4 -9 3 -6 -3 3 -5 0 -10 -8 -10 -19 0 -19 0 7 23 12 10 18 13 13 5 -5 -9
-3 -12 6 -9 8 3 13 12 13 21 -1 9 2 14 7 11 5 -3 16 1 24 9 13 13 13 17 0 27
-10 9 -12 17 -5 30 5 9 6 21 2 26 -4 5 2 1 14 -9 11 -9 24 -15 27 -12 4 3 2
-1 -3 -7 -9 -10 -13 -10 -19 0 -7 11 -9 11 -14 -2 -3 -8 -1 -18 4 -22 14 -8
90 68 84 84 -3 7 -1 11 4 7 12 -7 73 70 63 80 -4 5 -2 5 5 2 6 -4 20 5 32 20
58 78 35 73 333 73 208 0 268 3 268 13 0 8 3 9 8 1 4 -6 13 -13 21 -15 9 -3
-11 -35 -64 -98 -43 -52 -85 -101 -94 -111 -30 -32 -158 -175 -200 -223 -23
-27 -38 -53 -35 -59 4 -6 2 -8 -4 -5 -12 8 -301 -321 -302 -344 0 -9 178 -182
248 -240 34 -29 62 -55 62 -59 0 -3 -8 -15 -17 -26 -24 -26 -155 -176 -221
-253 -29 -33 -58 -61 -64 -61 -5 0 -73 61 -150 135 l-141 135 -24 -26 c-14
-15 -54 -63 -91 -108 -131 -161 -317 -381 -332 -393 -11 -9 -89 -12 -287 -13
-150 0 -273 2 -273 6 0 7 98 130 211 264 204 241 413 487 463 544 28 32 56 66
62 75 10 13 -12 41 -129 166 -77 83 -218 233 -312 335 -274 294 -295 315 -306
312 -6 -1 -8 2 -5 7 4 5 2 12 -4 16 -15 9 -12 25 5 25 9 0 18 7 22 16 5 13 7
13 14 2 5 -7 25 -14 46 -14z m123 16 c0 -5 -17 -9 -37 -9 l-38 2 35 7 c19 4
36 8 38 9 1 0 2 -3 2 -9z m107 4 c-3 -3 -12 -4 -19 -1 -8 3 -5 6 6 6 11 1 17
-2 13 -5z m271 -8 c-7 -8 -15 -12 -17 -11 -5 6 10 25 20 25 5 0 4 -6 -3 -14z
m887 -4 c-3 -3 -11 0 -18 7 -9 10 -8 11 6 5 10 -3 15 -9 12 -12z m-130 -2 c3
-5 -1 -10 -9 -10 -9 0 -16 5 -16 10 0 6 4 10 9 10 6 0 13 -4 16 -10z m-90 -10
c3 -5 1 -10 -4 -10 -6 0 -11 5 -11 10 0 6 2 10 4 10 3 0 8 -4 11 -10z m-1895
-54 c0 -12 -5 -7 -19 24 -11 24 -11 24 3 6 9 -11 16 -24 16 -30z m2010 19 c-7
-8 -19 -15 -27 -15 -11 0 -11 3 -1 15 18 20 45 21 28 0z m-690 -29 c-7 -7 -13
-7 -20 0 -6 6 -3 10 10 10 13 0 16 -4 10 -10z m-9 -33 c13 -16 12 -17 -3 -4
-17 13 -22 21 -14 21 2 0 10 -8 17 -17z m95 -45 c4 -7 4 -10 -1 -6 -4 4 -15 2
-24 -5 -14 -11 -14 -10 -2 6 16 20 18 21 27 5z m534 -10 c0 -7 -5 -6 -13 1 -8
6 -18 7 -22 3 -5 -4 -5 -2 -1 5 8 14 36 6 36 -9z m1615 -588 c9 -15 14 -9
-299 -364 l-278 -316 -32 26 c-17 15 -69 63 -116 108 -47 44 -112 105 -144
135 -52 48 -57 57 -46 74 6 11 75 93 153 183 l142 164 307 0 c203 0 309 -4
313 -10z m-1058 -642 c47 -35 141 -90 207 -124 66 -33 121 -65 123 -70 2 -5
-24 -40 -57 -78 -33 -38 -60 -75 -60 -81 0 -13 44 -63 260 -301 238 -261 330
-365 330 -372 0 -4 -141 -6 -312 -4 l-313 2 -34 38 c-18 20 -85 92 -148 160
l-114 122 -300 0 c-180 0 -299 4 -299 9 0 14 93 129 315 390 104 123 217 257
250 297 33 41 61 74 62 74 2 0 42 -28 90 -62z"/>
<path d="M3468 4783 c7 -3 16 -2 19 1 4 3 -2 6 -13 5 -11 0 -14 -3 -6 -6z"/>
<path d="M2577 4573 c18 -2 50 -2 70 0 21 2 7 4 -32 4 -38 0 -55 -2 -38 -4z"/>
<path d="M2778 4563 c7 -3 16 -2 19 1 4 3 -2 6 -13 5 -11 0 -14 -3 -6 -6z"/>
<path d="M3280 4440 c8 -5 20 -10 25 -10 6 0 3 5 -5 10 -8 5 -19 10 -25 10 -5
0 -3 -5 5 -10z"/>
<path d="M3367 4409 c7 -7 15 -10 18 -7 3 3 -2 9 -12 12 -14 6 -15 5 -6 -5z"/>
<path d="M3499 4338 c-12 -7 -11 -8 1 -6 8 1 26 -4 38 -11 13 -7 25 -11 27 -9
2 2 -9 11 -24 20 -19 10 -33 13 -42 6z"/>
<path d="M3757 4184 c7 -3 9 -13 6 -22 -4 -13 -3 -14 5 -4 7 11 16 9 43 -10
19 -13 34 -29 34 -37 0 -9 12 -15 30 -17 17 -1 22 0 13 3 -10 2 -18 8 -18 13
0 10 -103 80 -116 79 -5 0 -4 -3 3 -5z"/>
<path d="M1325 4112 c-2 -3 -2 -8 1 -13 5 -9 34 -1 34 10 0 8 -27 10 -35 3z"/>
<path d="M1295 4080 c-3 -6 1 -7 9 -4 18 7 21 14 7 14 -6 0 -13 -4 -16 -10z"/>
<path d="M3925 4050 c-4 -6 -2 -17 5 -24 8 -11 8 -16 -2 -20 -7 -3 -3 -3 9 -1
12 3 24 1 28 -5 3 -5 16 -10 27 -10 21 0 20 2 -7 30 -23 24 -31 27 -44 17 -12
-10 -14 -9 -8 6 7 19 2 23 -8 7z m50 -30 c17 -18 17 -20 2 -14 -9 3 -17 10
-17 16 0 5 -5 6 -12 2 -7 -4 -8 -3 -4 4 9 16 10 15 31 -8z"/>
<path d="M1259 4038 c7 -9 9 -23 5 -30 -6 -10 -4 -11 7 0 11 10 10 15 -6 30
-17 15 -18 15 -6 0z"/>
<path d="M1226 4022 c-3 -5 1 -9 9 -9 8 0 12 4 9 9 -3 4 -7 8 -9 8 -2 0 -6 -4
-9 -8z"/>
<path d="M3923 3983 c9 -2 23 -2 30 0 6 3 -1 5 -18 5 -16 0 -22 -2 -12 -5z"/>
<path d="M4020 3982 c0 -7 -3 -11 -7 -11 -27 4 -35 -4 -13 -13 14 -6 29 -10
34 -9 4 1 14 -4 22 -10 25 -20 15 7 -11 31 -14 13 -25 18 -25 12z m20 -16 c0
-3 -4 -8 -10 -11 -5 -3 -10 -1 -10 4 0 6 5 11 10 11 6 0 10 -2 10 -4z"/>
<path d="M659 3978 c0 -2 -2 -11 -4 -21 -3 -15 -1 -16 11 -6 7 6 11 15 8 20
-5 9 -13 12 -15 7z"/>
<path d="M1175 3970 c-4 -6 -12 -7 -18 -3 -7 4 -6 0 2 -10 7 -9 10 -18 5 -18
-5 -1 -16 -2 -24 -3 -9 0 -15 -12 -16 -29 -1 -25 -1 -25 3 -2 5 29 9 30 30 10
8 -9 18 -13 22 -9 3 4 0 9 -7 11 -10 4 -8 11 8 28 13 14 17 25 11 29 -5 4 -12
2 -16 -4z"/>
<path d="M3774 3959 c-19 -21 -19 -21 9 -8 15 7 27 16 27 21 0 14 -16 9 -36
-13z"/>
<path d="M3923 3953 c9 -2 23 -2 30 0 6 3 -1 5 -18 5 -16 0 -22 -2 -12 -5z"/>
<path d="M3720 3930 c-13 -8 -13 -10 2 -10 9 0 20 5 23 10 8 13 -5 13 -25 0z"/>
<path d="M3800 3925 c-14 -7 -41 -21 -60 -31 -19 -9 -29 -18 -23 -21 7 -2 27
3 45 13 18 9 43 22 55 28 13 6 23 14 23 19 0 11 -12 8 -40 -8z"/>
<path d="M3878 3933 c6 -2 18 -2 25 0 6 3 1 5 -13 5 -14 0 -19 -2 -12 -5z"/>
<path d="M629 3913 c-13 -16 -12 -17 4 -4 9 7 17 15 17 17 0 8 -8 3 -21 -13z"/>
<path d="M1075 3880 c5 -8 10 -21 11 -28 2 -10 -1 -11 -12 -1 -8 6 -17 9 -21
5 -3 -3 -1 -6 6 -6 7 0 9 -4 6 -10 -10 -16 31 -11 45 5 10 12 10 19 2 27 -7 7
-12 8 -12 4 0 -5 -8 -2 -17 5 -15 12 -16 12 -8 -1z m35 -20 c0 -5 -5 -10 -11
-10 -5 0 -7 5 -4 10 3 6 8 10 11 10 2 0 4 -4 4 -10z"/>
<path d="M1144 3865 c-9 -22 1 -29 15 -11 8 10 9 16 1 21 -5 3 -13 -1 -16 -10z"/>
<path d="M1240 3851 c0 -4 11 -6 25 -3 14 2 25 6 25 8 0 2 -11 4 -25 4 -14 0
-25 -4 -25 -9z"/>
<path d="M555 3839 c-4 -6 -5 -12 -2 -15 2 -3 7 2 10 11 7 17 1 20 -8 4z"/>
<path d="M1190 3835 c0 -12 12 -15 58 -13 42 1 47 2 20 5 -21 2 -38 8 -38 14
0 5 -9 9 -20 9 -11 0 -20 -7 -20 -15z"/>
<path d="M481 3814 c0 -11 3 -14 6 -6 3 7 2 16 -1 19 -3 4 -6 -2 -5 -13z"/>
<path d="M3184 3821 c8 -12 46 -21 46 -11 0 8 -24 20 -41 20 -6 0 -8 -4 -5 -9z"/>
<path d="M1361 3812 c-1 -7 9 -17 22 -22 12 -5 18 -9 12 -9 -5 -1 3 -8 19 -16
19 -10 33 -12 45 -5 13 8 11 9 -11 10 -29 0 -46 15 -26 23 7 3 -1 6 -19 6 -17
1 -34 7 -36 14 -4 9 -6 9 -6 -1z"/>
<path d="M3370 3810 c0 -5 7 -10 15 -10 8 0 15 5 15 10 0 6 -7 10 -15 10 -8 0
-15 -4 -15 -10z"/>
<path d="M3460 3810 c0 -6 7 -10 15 -10 8 0 15 2 15 4 0 2 -7 6 -15 10 -8 3
-15 1 -15 -4z"/>
<path d="M1472 3803 c-18 -2 -30 -9 -27 -14 10 -15 52 -10 59 6 3 8 4 14 3 13
-1 0 -17 -3 -35 -5z"/>
<path d="M2787 3803 c-4 -3 -7 -13 -7 -22 1 -13 3 -13 11 2 11 19 8 33 -4 20z"/>
<path d="M492 3772 c-7 -21 -7 -29 2 -29 6 0 12 13 13 29 3 36 -2 36 -15 0z"/>
<path d="M2700 3789 c0 -5 5 -7 10 -4 6 3 10 8 10 11 0 2 -4 4 -10 4 -5 0 -10
-5 -10 -11z"/>
<path d="M2118 3773 c7 -3 16 -2 19 1 4 3 -2 6 -13 5 -11 0 -14 -3 -6 -6z"/>
<path d="M2170 3766 c0 -8 6 -16 14 -19 10 -4 12 0 9 14 -6 22 -23 26 -23 5z"/>
<path d="M1825 3760 c3 -5 8 -10 11 -10 2 0 4 5 4 10 0 6 -5 10 -11 10 -5 0
-7 -4 -4 -10z"/>
<path d="M2730 3759 c0 -5 5 -7 10 -4 6 3 10 8 10 11 0 2 -4 4 -10 4 -5 0 -10
-5 -10 -11z"/>
<path d="M2898 3763 c7 -3 16 -2 19 1 4 3 -2 6 -13 5 -11 0 -14 -3 -6 -6z"/>
<path d="M2045 3749 c-10 -15 3 -25 16 -12 7 7 7 13 1 17 -6 3 -14 1 -17 -5z"/>
<path d="M2508 3733 c6 -2 18 -2 25 0 6 3 1 5 -13 5 -14 0 -19 -2 -12 -5z"/>
<path d="M2615 3730 c-3 -5 -1 -10 4 -10 6 0 11 5 11 10 0 6 -2 10 -4 10 -3 0
-8 -4 -11 -10z"/>
<path d="M2303 3713 c4 -6 3 -14 -3 -18 -20 -12 -9 -26 18 -23 34 4 34 16 2
37 -13 9 -21 11 -17 4z"/>
<path d="M2380 3695 c-10 -12 -9 -16 5 -21 19 -8 40 9 31 25 -10 15 -21 14
-36 -4z"/>
<path d="M437 3659 c-10 -37 -8 -42 9 -25 10 11 12 21 6 32 -8 14 -10 13 -15
-7z"/>
<path d="M460 3669 c0 -15 18 -19 23 -6 3 8 -1 14 -9 14 -8 0 -14 -4 -14 -8z"/>
</g>
</svg>
